<svg width="300" height="240" viewBox="0 0 300 240" fill="none" xmlns="http://www.w3.org/2000/svg">
  <defs>
    <linearGradient id="mecGradient" x1="0%" y1="0%" x2="100%" y2="100%">
      <stop offset="0%" style="stop-color:#43e97b;stop-opacity:1" />
      <stop offset="100%" style="stop-color:#38f9d7;stop-opacity:1" />
    </linearGradient>
  </defs>
  <rect width="300" height="240" fill="url(#mecGradient)"/>
  <rect x="100" y="90" width="100" height="80" rx="8" fill="#ffffff" opacity="0.9"/>
  <circle cx="150" cy="130" r="25" fill="#ffffff" opacity="0.9"/>
  <circle cx="150" cy="130" r="15" fill="#43e97b" opacity="0.5"/>
  <circle cx="110" cy="110" r="4" fill="#43e97b"/>
  <circle cx="190" cy="110" r="4" fill="#43e97b"/>
  <circle cx="110" cy="150" r="4" fill="#43e97b"/>
  <circle cx="190" cy="150" r="4" fill="#43e97b"/>
  <polygon points="150,80 155,95 170,90 165,105 180,110 165,115 170,130 155,125 150,140 145,125 130,130 135,115 120,110 135,105 130,90 145,95" fill="#ffffff" opacity="0.9"/>
</svg>
